<mxfile host="app.diagrams.net" agent="Mozilla/5.0 (Windows NT 10.0; Win64; x64) AppleWebKit/537.36 (KHTML, like Gecko) Chrome/132.0.0.0 Safari/537.36" version="26.0.6">
  <diagram name="Page-1" id="V1888Gusg-JLwd5Jrx3J">
    <mxGraphModel dx="1150" dy="502" grid="1" gridSize="10" guides="1" tooltips="1" connect="1" arrows="1" fold="1" page="1" pageScale="1" pageWidth="1100" pageHeight="850" math="0" shadow="0">
      <root>
        <mxCell id="0" />
        <mxCell id="1" parent="0" />
        <mxCell id="bNGFZBDBEgYefsVrpHxR-7" style="edgeStyle=orthogonalEdgeStyle;rounded=0;orthogonalLoop=1;jettySize=auto;html=1;entryX=0;entryY=0.5;entryDx=0;entryDy=0;" edge="1" parent="1" source="bNGFZBDBEgYefsVrpHxR-2" target="bNGFZBDBEgYefsVrpHxR-3">
          <mxGeometry relative="1" as="geometry" />
        </mxCell>
        <mxCell id="bNGFZBDBEgYefsVrpHxR-2" value="&lt;font style=&quot;font-size: 18px;&quot;&gt;User Prompt&lt;/font&gt;&lt;div&gt;&lt;font size=&quot;3&quot;&gt;(input)&lt;/font&gt;&lt;/div&gt;" style="rounded=1;whiteSpace=wrap;html=1;" vertex="1" parent="1">
          <mxGeometry x="210" y="90" width="120" height="60" as="geometry" />
        </mxCell>
        <mxCell id="bNGFZBDBEgYefsVrpHxR-3" value="&lt;span style=&quot;font-size: 18px;&quot;&gt;Text Encoder&lt;/span&gt;" style="rounded=1;whiteSpace=wrap;html=1;" vertex="1" parent="1">
          <mxGeometry x="440" y="90" width="120" height="60" as="geometry" />
        </mxCell>
        <mxCell id="bNGFZBDBEgYefsVrpHxR-11" style="edgeStyle=orthogonalEdgeStyle;rounded=0;orthogonalLoop=1;jettySize=auto;html=1;entryX=0.5;entryY=0;entryDx=0;entryDy=0;" edge="1" parent="1" source="bNGFZBDBEgYefsVrpHxR-4" target="bNGFZBDBEgYefsVrpHxR-10">
          <mxGeometry relative="1" as="geometry" />
        </mxCell>
        <mxCell id="bNGFZBDBEgYefsVrpHxR-4" value="&lt;span style=&quot;font-size: 18px;&quot;&gt;Generator&lt;/span&gt;" style="rounded=1;whiteSpace=wrap;html=1;fillColor=#B9E0A5;" vertex="1" parent="1">
          <mxGeometry x="690" y="90" width="120" height="60" as="geometry" />
        </mxCell>
        <mxCell id="bNGFZBDBEgYefsVrpHxR-6" value="&lt;font style=&quot;font-size: 14px;&quot;&gt;Semantic&amp;nbsp;&lt;/font&gt;&lt;div&gt;&lt;font style=&quot;font-size: 14px;&quot;&gt;Features&lt;/font&gt;&lt;/div&gt;" style="text;html=1;align=center;verticalAlign=middle;whiteSpace=wrap;rounded=0;rotation=0;" vertex="1" parent="1">
          <mxGeometry x="560" y="70" width="120" height="60" as="geometry" />
        </mxCell>
        <mxCell id="bNGFZBDBEgYefsVrpHxR-9" value="" style="shape=flexArrow;endArrow=classic;html=1;rounded=0;exitX=1;exitY=0.5;exitDx=0;exitDy=0;entryX=0;entryY=0.5;entryDx=0;entryDy=0;" edge="1" parent="1" source="bNGFZBDBEgYefsVrpHxR-3" target="bNGFZBDBEgYefsVrpHxR-4">
          <mxGeometry width="50" height="50" relative="1" as="geometry">
            <mxPoint x="520" y="290" as="sourcePoint" />
            <mxPoint x="570" y="240" as="targetPoint" />
          </mxGeometry>
        </mxCell>
        <mxCell id="bNGFZBDBEgYefsVrpHxR-18" style="edgeStyle=orthogonalEdgeStyle;rounded=0;orthogonalLoop=1;jettySize=auto;html=1;entryX=0.5;entryY=0;entryDx=0;entryDy=0;" edge="1" parent="1" source="bNGFZBDBEgYefsVrpHxR-10" target="bNGFZBDBEgYefsVrpHxR-16">
          <mxGeometry relative="1" as="geometry" />
        </mxCell>
        <mxCell id="bNGFZBDBEgYefsVrpHxR-10" value="&lt;span style=&quot;font-size: 18px;&quot;&gt;Discriminator&lt;/span&gt;" style="rounded=1;whiteSpace=wrap;html=1;fillColor=#FFD966;" vertex="1" parent="1">
          <mxGeometry x="690" y="240" width="120" height="60" as="geometry" />
        </mxCell>
        <mxCell id="bNGFZBDBEgYefsVrpHxR-12" value="&lt;font style=&quot;font-size: 14px;&quot;&gt;Generated&amp;nbsp;&lt;/font&gt;&lt;div&gt;&lt;font size=&quot;3&quot;&gt;Images&lt;/font&gt;&lt;/div&gt;" style="text;html=1;align=center;verticalAlign=middle;whiteSpace=wrap;rounded=0;rotation=-90;" vertex="1" parent="1">
          <mxGeometry x="700" y="180" width="60" height="30" as="geometry" />
        </mxCell>
        <mxCell id="bNGFZBDBEgYefsVrpHxR-15" style="edgeStyle=orthogonalEdgeStyle;rounded=0;orthogonalLoop=1;jettySize=auto;html=1;entryX=0;entryY=0.5;entryDx=0;entryDy=0;" edge="1" parent="1" source="bNGFZBDBEgYefsVrpHxR-14" target="bNGFZBDBEgYefsVrpHxR-10">
          <mxGeometry relative="1" as="geometry" />
        </mxCell>
        <mxCell id="bNGFZBDBEgYefsVrpHxR-14" value="&lt;span style=&quot;font-size: 18px;&quot;&gt;Real samples&lt;/span&gt;" style="rounded=1;whiteSpace=wrap;html=1;" vertex="1" parent="1">
          <mxGeometry x="440" y="240" width="120" height="60" as="geometry" />
        </mxCell>
        <mxCell id="bNGFZBDBEgYefsVrpHxR-19" style="edgeStyle=orthogonalEdgeStyle;rounded=0;orthogonalLoop=1;jettySize=auto;html=1;entryX=1;entryY=0.5;entryDx=0;entryDy=0;" edge="1" parent="1" source="bNGFZBDBEgYefsVrpHxR-16" target="bNGFZBDBEgYefsVrpHxR-10">
          <mxGeometry relative="1" as="geometry">
            <Array as="points">
              <mxPoint x="860" y="395" />
              <mxPoint x="860" y="270" />
            </Array>
          </mxGeometry>
        </mxCell>
        <mxCell id="bNGFZBDBEgYefsVrpHxR-20" style="edgeStyle=orthogonalEdgeStyle;rounded=0;orthogonalLoop=1;jettySize=auto;html=1;entryX=1;entryY=0.5;entryDx=0;entryDy=0;" edge="1" parent="1" source="bNGFZBDBEgYefsVrpHxR-16" target="bNGFZBDBEgYefsVrpHxR-4">
          <mxGeometry relative="1" as="geometry">
            <Array as="points">
              <mxPoint x="860" y="395" />
              <mxPoint x="860" y="120" />
            </Array>
          </mxGeometry>
        </mxCell>
        <mxCell id="bNGFZBDBEgYefsVrpHxR-16" value="&lt;span style=&quot;font-size: 18px;&quot;&gt;Loss&lt;/span&gt;" style="rounded=1;whiteSpace=wrap;html=1;fillColor=#FF6666;" vertex="1" parent="1">
          <mxGeometry x="690" y="365" width="120" height="60" as="geometry" />
        </mxCell>
        <mxCell id="bNGFZBDBEgYefsVrpHxR-21" value="&lt;span style=&quot;font-size: 14px;&quot;&gt;Feedback&lt;/span&gt;&lt;div&gt;&lt;span style=&quot;font-size: 14px;&quot;&gt;Loop&lt;/span&gt;&lt;/div&gt;" style="text;html=1;align=center;verticalAlign=middle;whiteSpace=wrap;rounded=0;rotation=-90;" vertex="1" parent="1">
          <mxGeometry x="850" y="255" width="60" height="30" as="geometry" />
        </mxCell>
        <mxCell id="bNGFZBDBEgYefsVrpHxR-22" value="" style="endArrow=none;html=1;rounded=0;" edge="1" parent="1">
          <mxGeometry width="50" height="50" relative="1" as="geometry">
            <mxPoint x="120" y="20" as="sourcePoint" />
            <mxPoint x="1000" y="20" as="targetPoint" />
          </mxGeometry>
        </mxCell>
        <mxCell id="bNGFZBDBEgYefsVrpHxR-23" value="" style="endArrow=none;html=1;rounded=0;" edge="1" parent="1">
          <mxGeometry width="50" height="50" relative="1" as="geometry">
            <mxPoint x="120" y="500" as="sourcePoint" />
            <mxPoint x="1000" y="500" as="targetPoint" />
          </mxGeometry>
        </mxCell>
        <mxCell id="bNGFZBDBEgYefsVrpHxR-24" value="" style="endArrow=none;html=1;rounded=0;" edge="1" parent="1">
          <mxGeometry width="50" height="50" relative="1" as="geometry">
            <mxPoint x="120" y="500" as="sourcePoint" />
            <mxPoint x="120" y="20" as="targetPoint" />
          </mxGeometry>
        </mxCell>
        <mxCell id="bNGFZBDBEgYefsVrpHxR-25" value="" style="endArrow=none;html=1;rounded=0;" edge="1" parent="1">
          <mxGeometry width="50" height="50" relative="1" as="geometry">
            <mxPoint x="1000" y="500" as="sourcePoint" />
            <mxPoint x="1000" y="20" as="targetPoint" />
          </mxGeometry>
        </mxCell>
      </root>
    </mxGraphModel>
  </diagram>
</mxfile>
